<?xml version="1.0" encoding="iso-8859-1"?>
<!-- Uploaded to: SVG Repo, www.svgrepo.com, Generator: SVG Repo Mixer Tools -->
<svg height="800px" width="800px" version="1.1" id="Layer_1" xmlns="http://www.w3.org/2000/svg" xmlns:xlink="http://www.w3.org/1999/xlink" 
	 viewBox="0 0 512 512" xml:space="preserve">
<path style="fill:#D94700;" d="M386.251,512c-7.062,0-14.231-1.504-21.043-4.68c-0.044-0.022-0.09-0.042-0.134-0.064L35.885,352.568
	c-8.338-3.888-11.945-13.799-8.057-22.137c3.889-8.339,13.799-11.945,22.137-8.058l329.38,154.777
	c8.314,3.84,18.208,0.221,22.082-8.083c3.889-8.338,13.798-11.941,22.138-8.057c8.338,3.889,11.945,13.8,8.057,22.138
	C423.15,501.311,405.082,512,386.251,512z"/>
<path style="fill:#FFD9B3;" d="M418.994,133.35c-9.706,0-19.163-2.114-28.108-6.287c-33.298-15.527-47.757-55.251-32.229-88.547
	C370.151,13.865,394.464,0,419.094,0c26.517,0,52.502,16.245,62.563,43.885C497.539,87.514,465.04,133.35,418.994,133.35z"/>
<g>
	<path style="fill:#73C0E6;" d="M237.118,339.48l-27.159,58.242l60.406,28.385l35.884-77.215
		c5.327-11.447,3.761-24.699-4.088-34.589l-50.014-63.024c0,0,0.801-0.641,2.142-1.714c6.934-5.546,28.323-22.653,28.323-22.653
		c1.053,0.861,96.057,45.505,96.057,45.505c16.801,7.835,36.607,0.33,44.274-16.115c7.75-16.622,0.508-36.524-16.116-44.273
		l-47.706-22.246l-27.555-75.708c-6.201-17.038-25.332-26.381-42.873-19.997c-5.336,2.072-51.601,39.323-80.046,62.173
		c0,0-8.533,6.855-17.068,13.71c-6.047,4.726-12.094,9.452-12.094,9.452c-1.111,0.868-8.371,6.08-16.6,12.601
		c-7.114,5.646-11.578,13.672-12.569,22.599c-0.967,8.706,1.503,17.234,6.951,24.012L237.118,339.48z"/>
	<path style="fill:#73C0E6;" d="M105.232,180.314c-2.358,0-4.752-0.503-7.03-1.565c-8.338-3.888-11.945-13.799-8.057-22.137
		l28.159-60.389c3.888-8.338,13.8-11.944,22.137-8.058c8.338,3.888,11.945,13.799,8.057,22.137l-28.159,60.389
		C117.515,176.752,111.506,180.314,105.232,180.314z"/>
</g>
<path style="fill:#CFDBE6;" d="M301.803,225.975c-0.07-0.177-11.325-31.088-11.325-31.088
	c-42.25-19.701-191.517-89.306-194.309-90.607c-8.337-3.887-18.249-0.28-22.137,8.057c-3.888,8.339-0.281,18.25,8.057,22.138
	c191.416,89.259,234.329,108.931,235.681,109.182C310.784,239.904,304.898,233.649,301.803,225.975z"/>
</svg>